<svg xmlns="http://www.w3.org/2000/svg" width="1200" height="760" viewBox="0 0 1200 760" role="img" aria-label="Kozmetik Dolum">
<defs>
  <linearGradient id="g" x1="0" x2="1" y1="0" y2="1"><stop offset="0" stop-color="#8e1219"/><stop offset=".72" stop-color="#111827"/><stop offset="1" stop-color="#f8fafc"/></linearGradient>
  <filter id="s"><feDropShadow dx="0" dy="18" stdDeviation="24" flood-opacity=".22"/></filter>
</defs>
<rect width="1200" height="760" rx="42" fill="url(#g)"/>
<circle cx="1000" cy="120" r="220" fill="white" opacity=".13"/>
<circle cx="120" cy="690" r="190" fill="white" opacity=".11"/>
<g filter="url(#s)">
  <rect x="100" y="360" width="720" height="160" rx="38" fill="white" opacity=".95"/>
  <rect x="150" y="405" width="120" height="70" rx="20" fill="#f1f5f9"/>
  <rect x="310" y="405" width="120" height="70" rx="20" fill="#f1f5f9"/>
  <rect x="470" y="405" width="120" height="70" rx="20" fill="#f1f5f9"/>
  <path d="M690 430h210c70 0 126 56 126 126v26H690z" fill="#ffffff" opacity=".9"/>
  <circle cx="215" cy="565" r="42" fill="#111827"/><circle cx="840" cy="565" r="42" fill="#111827"/>
  <path d="M128 565h810" stroke="#111827" stroke-width="18" stroke-linecap="round" opacity=".35"/>
</g>
<g><circle cx="130" cy="250" r="34" fill="white" opacity=".85"/><text x="130" y="256" font-size="12" font-weight="700" text-anchor="middle" fill="#222">Krem</text><circle cx="240" cy="250" r="34" fill="white" opacity=".85"/><text x="240" y="256" font-size="12" font-weight="700" text-anchor="middle" fill="#222">Şampuan</text><circle cx="350" cy="250" r="34" fill="white" opacity=".85"/><text x="350" y="256" font-size="12" font-weight="700" text-anchor="middle" fill="#222">Sıvı Sabun</text><circle cx="460" cy="250" r="34" fill="white" opacity=".85"/><text x="460" y="256" font-size="12" font-weight="700" text-anchor="middle" fill="#222">Losyon</text></g>
<text x="96" y="105" font-size="54" font-family="Arial, Helvetica, sans-serif" font-weight="800" fill="white">Kozmetik Dolum</text>
<text x="98" y="152" font-size="24" font-family="Arial, Helvetica, sans-serif" fill="white" opacity=".86">Pascal Flow proses ve dolum çözümleri</text>
</svg>